<svg width="16" height="16" viewBox="0 0 16 16" fill="none" xmlns="http://www.w3.org/2000/svg">
<path d="M14.0001 7.47625C14.2007 8.82865 13.9697 10.2099 13.34 11.4234C12.7103 12.6369 11.714 13.621 10.4928 14.2357C9.27156 14.8504 7.88761 15.0643 6.53779 14.8471C5.18796 14.6299 3.941 13.9926 2.97425 13.0259C2.0075 12.0591 1.3702 10.8122 1.15299 9.46235C0.935789 8.11252 1.14974 6.72858 1.76441 5.50736C2.37909 4.28614 3.36319 3.28983 4.57673 2.66014C5.79028 2.03046 7.17148 1.79946 8.52388 2C9.90338 2.20456 11.1805 2.84738 12.1666 3.8335C13.1528 4.81962 13.7956 6.09675 14.0001 7.47625Z" stroke="white" stroke-width="2" stroke-linecap="round" stroke-linejoin="round"/>
</svg>
